<svg width="3328" height="984" viewBox="0 0 3328 984" fill="none" xmlns="http://www.w3.org/2000/svg">
<mask id="mask0_49_81" style="mask-type:luminance" maskUnits="userSpaceOnUse" x="0" y="0" width="3328" height="984">
<path d="M3327.46 0H0V983.486H3327.46V0Z" fill="white"/>
</mask>
<g mask="url(#mask0_49_81)">
<path d="M3204.21 0H123.239C55.1762 0 0 55.0401 0 122.936V860.55C0 928.445 55.1762 983.486 123.239 983.486H3204.21C3272.29 983.486 3327.46 928.445 3327.46 860.55V122.936C3327.46 55.0401 3272.29 0 3204.21 0Z" fill="black"/>
<path d="M3204.21 19.6697C3261.4 19.6697 3307.74 65.8935 3307.74 122.936V860.55C3307.74 917.592 3261.4 963.816 3204.21 963.816H123.239C66.0563 963.816 19.7182 917.592 19.7182 860.55V122.936C19.7182 65.8935 66.0563 19.6697 123.239 19.6697H3204.21ZM3204.21 0H123.239C55.4576 0 0 55.3211 0 122.936V860.55C0 928.165 55.4576 983.486 123.239 983.486H3204.21C3272.01 983.486 3327.46 928.165 3327.46 860.55V122.936C3327.46 55.3211 3272.01 0 3204.21 0Z" fill="#A6A6A6"/>
<path d="M1679.5 264.308C1621.58 264.308 1574.25 308.319 1574.25 368.803C1574.25 429.288 1621.58 473.299 1679.5 473.299C1737.42 473.299 1784.74 429.042 1784.74 368.803C1784.74 308.565 1737.42 264.308 1679.5 264.308ZM1679.5 432.238C1647.71 432.238 1620.35 406.176 1620.35 368.803C1620.35 331.431 1647.71 305.369 1679.5 305.369C1711.29 305.369 1738.65 331.185 1738.65 368.803C1738.65 406.422 1711.29 432.238 1679.5 432.238ZM1449.78 264.308C1391.86 264.308 1344.54 308.319 1344.54 368.803C1344.54 429.288 1391.86 473.299 1449.78 473.299C1507.7 473.299 1555.03 429.042 1555.03 368.803C1555.03 308.565 1507.7 264.308 1449.78 264.308ZM1449.78 432.238C1417.99 432.238 1390.63 406.176 1390.63 368.803C1390.63 331.431 1417.99 305.369 1449.78 305.369C1481.58 305.369 1508.94 331.185 1508.94 368.803C1508.94 406.422 1481.58 432.238 1449.78 432.238ZM1176.68 296.517V340.774H1283.16C1279.96 365.853 1271.58 384.047 1259.01 396.587C1243.48 412.077 1219.33 429.042 1176.93 429.042C1111.37 429.042 1060.1 376.425 1060.1 311.024C1060.1 245.622 1111.37 193.005 1176.93 193.005C1212.18 193.005 1238.06 206.774 1257.04 224.723L1288.34 193.497C1261.72 168.172 1226.47 148.749 1176.68 148.749C1086.97 148.749 1011.54 221.526 1011.54 311.269C1011.54 401.013 1086.97 473.791 1176.68 473.791C1225.24 473.791 1261.72 458.055 1290.31 428.304C1319.64 399.046 1328.76 357.739 1328.76 324.547C1328.76 314.22 1328.02 304.631 1326.3 296.763H1176.68V296.517ZM2293.49 330.939C2284.85 307.581 2258.23 264.308 2203.76 264.308C2149.29 264.308 2104.92 306.598 2104.92 368.803C2104.92 427.321 2149.29 473.299 2208.94 473.299C2257 473.299 2284.85 444.04 2296.19 427.075L2260.46 403.225C2248.62 420.682 2232.35 432.238 2208.94 432.238C2185.51 432.238 2168.76 421.42 2158.16 400.521L2298.4 342.741L2293.73 330.939H2293.49ZM2150.52 365.853C2149.29 325.53 2181.83 304.877 2205.23 304.877C2223.48 304.877 2239 313.974 2244.18 327.005L2150.52 365.853ZM2036.65 467.152H2082.74V159.813H2036.65V467.152ZM1961.23 287.666H1959.74C1949.4 275.372 1929.68 264.308 1904.53 264.308C1852.03 264.308 1803.97 310.286 1803.97 369.295C1803.97 428.304 1852.03 473.545 1904.53 473.545C1929.68 473.545 1949.4 462.48 1959.74 449.695H1961.23V464.693C1961.23 504.77 1939.77 526.161 1905.27 526.161C1877.18 526.161 1859.67 506 1852.52 489.035L1812.35 505.754C1823.94 533.537 1854.51 567.467 1905.27 567.467C1959.25 567.467 2004.85 535.75 2004.85 458.546V270.701H1961.23V287.666ZM1908.24 432.238C1876.44 432.238 1849.82 405.684 1849.82 369.295C1849.82 332.906 1876.44 305.614 1908.24 305.614C1940.02 305.614 1964.18 332.66 1964.18 369.295C1964.18 405.93 1939.53 432.238 1908.24 432.238ZM2509.39 159.813H2399.21V467.152H2445.3V350.609H2509.64C2560.67 350.609 2610.69 313.728 2610.69 255.211C2610.69 196.693 2560.67 159.813 2509.64 159.813H2509.39ZM2510.38 307.827H2445.06V202.348H2510.38C2544.88 202.348 2564.35 230.87 2564.35 254.965C2564.35 279.06 2544.88 307.581 2510.38 307.581V307.827ZM2794.82 263.816C2761.54 263.816 2727.04 278.569 2712.75 310.778L2753.66 327.743C2762.28 310.778 2778.54 305.123 2795.55 305.123C2819.22 305.123 2843.61 319.383 2843.86 344.708V347.904C2835.48 343.233 2817.73 336.102 2795.8 336.102C2751.67 336.102 2707.07 360.198 2707.07 405.192C2707.07 446.253 2743.05 472.807 2783.47 472.807C2814.29 472.807 2831.53 459.038 2842.14 442.811H2843.61V466.66H2887.99V348.888C2887.99 294.304 2847.07 263.816 2794.33 263.816H2794.82ZM2789.15 432.238C2774.11 432.238 2753.17 424.616 2753.17 406.176C2753.17 382.572 2779.29 373.475 2801.96 373.475C2822.17 373.475 2831.78 377.901 2843.86 383.802C2840.42 412.323 2815.77 432.484 2789.15 432.484V432.238ZM3049.92 270.455L2997.17 403.717H2995.69L2940.98 270.455H2891.43L2973.52 456.825L2926.69 560.337H2974.75L3101.19 270.455H3050.16H3049.92ZM2635.84 467.152H2681.93V159.813H2635.84V467.152Z" fill="white"/>
<path d="M510.709 477.481L248.208 755.316C256.343 785.558 283.948 807.686 316.729 807.686C329.793 807.686 342.116 804.244 352.715 797.851L353.456 797.36L648.736 627.462L510.461 477.235L510.709 477.481Z" fill="#EA4335"/>
<path d="M776.157 430.274H775.91L648.481 356.266L504.784 483.874L648.974 627.708L775.91 554.685C798.094 542.637 813.128 519.279 813.128 492.479C813.128 465.679 798.34 442.321 776.157 430.519V430.274Z" fill="#FBBC04"/>
<path d="M248.199 228.165C246.72 234.066 245.733 239.967 245.733 246.36V737.365C245.733 743.758 246.474 749.659 248.199 755.56L519.572 484.855L248.199 228.165Z" fill="#4285F4"/>
<path d="M512.681 491.74L648.49 356.265L353.454 185.63C342.857 179.238 330.287 175.55 316.729 175.55C283.948 175.55 256.343 197.924 248.208 227.92L512.681 491.494V491.74Z" fill="#34A853"/>
<path d="M1027.32 668.029C1031.51 668.029 1035.7 667.783 1039.64 667.537C1043.59 667.537 1046.54 667.045 1048.52 667.045C1052.95 666.8 1058.37 666.308 1065.03 665.57C1071.44 664.833 1078.83 664.341 1086.97 663.603C1095.1 662.866 1103.73 662.128 1112.85 661.39C1121.97 660.653 1131.58 659.915 1141.44 658.932C1148.83 658.194 1156.23 657.702 1163.62 657.211C1171.02 656.719 1177.92 656.227 1184.57 655.981C1191.23 655.735 1197.14 655.489 1202.07 655.244V682.535C1198.37 682.535 1193.94 682.535 1189.01 682.535C1184.08 682.535 1179.15 683.027 1174.22 683.273C1169.29 683.519 1164.85 684.256 1160.91 685.24C1154.5 686.961 1148.59 689.912 1142.92 693.845C1137.25 698.025 1132.56 702.697 1128.37 708.106C1124.18 713.515 1121.23 719.416 1118.76 725.809C1116.54 732.201 1115.31 738.594 1115.31 744.987C1115.31 751.871 1116.54 758.264 1119.01 763.427C1121.47 768.836 1124.92 773.262 1129.36 777.196C1133.8 780.884 1138.73 784.08 1144.64 786.539C1150.56 788.998 1156.72 790.965 1163.62 792.194C1170.52 793.423 1177.42 794.407 1184.82 794.653L1174.71 823.911C1165.59 823.42 1156.97 821.944 1148.34 819.732C1139.71 817.519 1131.83 814.322 1124.43 810.388C1117.04 806.455 1110.63 801.537 1104.96 795.636C1099.54 789.981 1095.1 783.343 1091.9 775.721C1088.69 768.344 1086.97 759.739 1086.97 750.642C1086.97 740.315 1088.69 730.972 1091.9 722.367C1095.1 713.761 1099.29 706.139 1104.22 699.746C1109.15 693.354 1114.08 688.19 1119.01 684.748C1115.07 685.24 1110.13 685.978 1104.47 686.469C1098.8 686.961 1092.63 687.699 1086.23 688.436C1079.82 689.174 1073.16 690.157 1066.51 690.895C1059.85 691.878 1053.2 692.616 1047.04 693.845C1040.87 694.829 1035.21 696.058 1030.28 697.042L1027.56 667.783L1027.32 668.029ZM1171.26 703.434C1173.23 705.893 1174.96 709.089 1177.18 712.532C1179.15 715.974 1181.37 719.416 1183.34 723.104C1185.31 726.546 1187.04 729.743 1188.51 732.693L1172.25 740.069C1169.54 734.168 1166.82 728.759 1164.36 724.333C1161.9 719.662 1158.94 715.236 1155.49 710.319L1171.26 703.68V703.434ZM1195.17 693.6C1197.14 696.058 1199.11 699.255 1201.33 702.451C1203.55 705.647 1205.77 709.335 1207.99 712.778C1210.21 716.22 1211.93 719.416 1213.41 722.121L1197.39 729.743C1194.43 724.088 1191.72 718.924 1189.25 714.499C1186.54 710.073 1183.59 705.401 1179.89 700.73L1195.42 693.354L1195.17 693.6Z" fill="white"/>
<path d="M1232.14 743.021H1429.32V768.346H1232.14V743.021ZM1391.12 632.379L1409.85 653.77C1398.76 656.72 1386.93 659.179 1373.86 661.146C1361.05 663.113 1347.49 665.08 1333.69 666.555C1319.88 668.031 1305.84 669.26 1291.79 670.243C1277.74 671.227 1264.18 671.964 1251.36 672.21C1250.87 669.014 1250.13 665.08 1248.9 660.654C1247.67 656.229 1246.43 652.541 1244.96 649.59C1257.77 649.098 1271.08 648.361 1284.39 647.377C1297.95 646.394 1311.01 645.165 1324.08 643.689C1336.89 642.214 1349.22 640.739 1360.55 638.772C1371.89 636.805 1382.24 634.838 1391.12 632.379ZM1246.93 693.109H1416.26V717.697H1246.93V693.109ZM1317.42 662.867H1344.29V803.26C1344.29 810.882 1343.3 816.783 1341.08 820.471C1338.86 824.159 1335.41 827.109 1329.99 829.322C1325.06 831.289 1318.41 832.273 1310.52 833.01C1302.63 833.502 1293.02 833.748 1282.17 833.748C1281.68 831.289 1280.94 828.585 1279.71 825.634C1278.48 822.684 1277.24 819.487 1275.77 816.537C1274.29 813.586 1273.05 810.882 1271.58 808.423C1277 808.423 1282.42 808.669 1287.6 808.915C1292.77 808.915 1297.7 808.915 1301.65 808.915H1310.52C1312.98 808.915 1314.71 808.177 1315.69 807.44C1316.68 806.702 1317.17 804.981 1317.17 803.014V663.113L1317.42 662.867Z" fill="white"/>
<path d="M1500.8 650.819C1500.31 652.294 1499.57 654.261 1498.83 656.719C1498.09 659.178 1497.35 661.883 1496.86 664.096C1496.12 666.554 1495.88 668.275 1495.38 669.751C1494.89 672.701 1494.4 676.635 1493.41 681.307C1492.42 685.978 1491.44 691.387 1490.7 697.288C1489.96 703.189 1488.97 709.336 1487.99 715.237C1487 721.384 1486.51 727.285 1486.02 732.94C1485.52 738.595 1485.28 743.758 1485.28 747.938C1485.28 749.905 1485.28 752.118 1485.28 754.822C1485.28 757.527 1485.52 759.74 1486.02 761.952C1487 759.494 1487.99 757.035 1489.22 754.576C1490.45 752.118 1491.44 749.659 1492.67 747.2C1493.9 744.741 1494.89 742.283 1495.63 740.07L1508.94 750.642C1506.97 756.543 1504.99 762.69 1502.78 769.574C1500.8 776.213 1498.83 782.606 1497.11 788.507C1495.38 794.407 1494.15 799.325 1493.41 803.259C1493.16 804.734 1492.92 806.701 1492.67 808.668C1492.67 810.635 1492.42 812.356 1492.42 813.34C1492.42 814.323 1492.42 815.798 1492.42 817.519C1492.42 819.24 1492.42 820.716 1492.67 822.191L1467.78 823.912C1465.56 816.536 1463.59 806.701 1462.11 794.162C1460.38 781.868 1459.64 768.345 1459.64 753.839C1459.64 745.971 1459.89 737.611 1460.63 729.497C1461.37 721.384 1462.11 713.27 1463.09 705.648C1464.08 698.026 1465.06 691.141 1466.05 684.749C1467.04 678.356 1467.78 673.193 1468.52 669.013C1468.76 666.063 1469.26 662.62 1469.75 658.932C1470.24 655.244 1470.49 651.556 1470.73 648.114L1500.8 650.573V650.819ZM1550.84 756.543C1549.85 760.231 1549.36 763.182 1548.87 766.132C1548.37 768.837 1548.13 771.787 1548.13 774.492C1548.13 776.705 1548.62 778.918 1549.85 780.884C1551.09 782.851 1552.81 784.573 1555.03 785.802C1557.25 787.031 1560.45 788.261 1564.4 788.752C1568.09 789.49 1572.78 789.736 1578.2 789.736C1587.81 789.736 1596.68 789.244 1605.31 788.261C1613.69 787.277 1622.56 786.048 1632.18 784.081L1632.67 812.848C1625.77 814.077 1617.88 815.061 1609.01 815.798C1600.13 816.536 1589.54 816.782 1577.46 816.782C1558.97 816.782 1545.17 813.585 1536.3 807.439C1527.42 801.292 1522.74 792.686 1522.74 781.622C1522.74 777.442 1522.99 773.262 1523.73 768.591C1524.47 763.919 1525.21 759.248 1526.44 753.839L1551.09 756.297L1550.84 756.543ZM1533.83 665.079C1540.49 666.063 1547.88 666.554 1556.02 666.8C1564.15 667.046 1572.53 667.292 1581.16 667.292C1589.54 667.292 1597.92 667.046 1605.8 666.308C1613.69 665.817 1620.35 665.325 1626.26 664.833V692.371C1619.61 692.863 1612.46 693.354 1604.57 693.846C1596.68 694.338 1588.55 694.338 1580.42 694.338C1572.28 694.338 1563.9 694.338 1556.02 693.846C1548.13 693.6 1540.73 693.108 1534.08 692.371V665.079H1533.83Z" fill="white"/>
<path d="M1742.61 691.88L1771.93 697.289C1767.02 718.434 1760.61 737.612 1752.46 754.823C1744.33 772.034 1734.48 787.278 1723.14 800.309C1711.79 813.34 1698.73 824.405 1683.7 833.502C1682.22 831.535 1679.99 829.322 1677.04 826.863C1674.09 824.159 1671.13 821.7 1668.18 818.995C1665.21 816.291 1662.5 814.324 1660.03 812.603C1682.47 801.293 1700.22 785.557 1713.53 764.904C1726.84 744.496 1736.45 720.155 1742.36 691.88H1742.61ZM1703.66 644.918H1764.54V670.981H1703.66V644.918ZM1751.97 644.918H1778.59C1778.59 651.803 1778.83 659.425 1779.57 668.03C1780.33 676.636 1781.31 685.979 1783.28 695.568C1785.24 705.403 1787.96 715.238 1791.65 725.564C1795.36 735.891 1800.29 745.972 1806.44 756.052C1812.6 766.133 1820.5 775.722 1829.86 785.065C1839.22 794.408 1850.56 803.014 1863.87 810.636C1861.91 812.111 1859.68 814.078 1856.97 816.783C1854.27 819.487 1851.55 822.192 1849.09 825.142C1846.63 828.093 1844.65 830.551 1842.93 833.01C1829.62 824.65 1817.78 815.553 1807.93 804.981C1798.06 794.408 1789.69 783.59 1783.03 772.034C1776.38 760.478 1770.95 748.676 1766.77 736.628C1762.57 724.581 1759.36 713.025 1757.39 701.715C1755.43 690.405 1753.95 679.832 1753.2 669.997C1752.46 660.162 1752.22 651.557 1752.22 644.427L1751.97 644.918Z" fill="white"/>
<path d="M1927.48 701.469C1925.25 701.714 1922.3 702.206 1918.59 702.452C1914.9 702.944 1911.2 703.436 1907.02 703.927C1902.82 704.419 1898.87 705.157 1894.69 705.648C1890.5 706.14 1886.56 706.632 1883.1 707.124L1880.4 679.832C1883.6 679.832 1886.56 679.832 1889.27 679.832C1891.97 679.832 1895.43 679.832 1899.12 679.586C1902.58 679.34 1906.77 678.848 1911.44 678.357C1916.13 677.865 1921.07 677.373 1925.98 676.636C1930.92 675.898 1935.61 675.16 1939.8 674.177C1943.98 673.193 1947.44 672.456 1949.9 671.718L1958.52 682.536C1957.29 684.258 1955.82 686.47 1954.1 688.929C1952.36 691.388 1950.88 694.092 1949.16 696.797C1947.44 699.502 1945.95 701.714 1944.72 703.681L1932.15 744.004C1929.93 747.201 1926.98 751.38 1923.77 756.298C1920.33 761.215 1916.87 766.624 1913.18 772.034C1909.48 777.689 1905.77 782.852 1902.33 788.015C1898.63 793.179 1895.43 797.604 1892.71 801.538L1875.71 778.18C1878.42 774.738 1881.63 770.804 1885.07 766.379C1888.53 761.953 1892.22 757.035 1896.17 752.118C1900.12 746.955 1903.81 742.037 1907.51 736.874C1911.2 731.711 1914.66 727.039 1917.85 722.613C1921.07 718.188 1923.77 714.254 1925.98 711.058L1926.49 705.403L1927.97 701.223L1927.48 701.469ZM1925 660.408V650.819C1925 647.623 1924.75 644.426 1924.26 640.984L1955.57 641.968C1954.83 645.164 1953.85 650.081 1952.85 656.228C1951.87 662.375 1950.88 669.505 1950.15 677.619C1949.41 685.733 1948.42 694.092 1947.69 702.698C1946.95 711.549 1946.19 720.155 1945.7 729.006C1945.21 737.612 1944.97 745.725 1944.97 753.347C1944.97 759.248 1944.97 765.149 1944.97 771.05C1944.97 776.951 1944.97 783.098 1945.21 789.491C1945.21 795.883 1945.7 802.276 1945.95 808.914C1945.95 810.881 1946.19 813.34 1946.7 816.782C1947.19 820.224 1947.19 822.929 1947.69 825.388H1918.1C1918.35 822.929 1918.59 819.979 1918.59 816.782C1918.59 813.586 1918.59 811.127 1918.59 809.406C1918.59 802.522 1918.84 795.883 1919.08 789.982C1919.33 784.081 1919.08 777.689 1919.33 771.05C1919.58 764.412 1919.33 756.544 1919.84 747.692C1919.84 744.496 1920.08 740.316 1920.57 735.153C1920.82 729.99 1921.07 724.581 1921.56 718.434C1922.05 712.287 1922.3 706.14 1922.79 699.993C1923.28 693.601 1923.53 687.946 1924.02 682.291C1924.26 676.881 1924.75 672.21 1925 668.276C1925.25 664.342 1925.25 661.637 1925.25 660.162L1925 660.408ZM2075.61 803.505C2070.67 808.177 2064.75 811.865 2058.1 814.815C2051.44 817.766 2043.81 819.241 2035.18 819.241C2027.3 819.241 2020.64 816.536 2015.71 810.881C2010.78 805.226 2008.32 797.358 2008.32 787.032C2008.32 781.377 2008.81 775.23 2009.55 768.591C2010.29 761.953 2011.27 755.314 2012.25 748.676C2013.25 742.037 2014.24 735.645 2014.97 729.498C2015.71 723.351 2016.2 717.942 2016.2 713.025C2016.2 707.861 2014.97 703.681 2012.25 701.223C2009.55 698.764 2006.09 697.289 2001.66 697.289C1996.73 697.289 1991.06 699.01 1984.89 702.452C1978.73 705.894 1972.57 710.32 1965.91 715.729C1959.5 721.138 1953.36 727.039 1947.69 732.94C1941.77 739.087 1936.84 744.988 1932.64 750.397V717.45C1935.11 714.5 1938.31 711.303 1942.51 707.369C1946.7 703.436 1951.62 699.502 1956.8 695.322C1962.23 691.142 1967.9 687.208 1973.81 683.766C1979.73 680.078 1985.63 677.127 1991.8 674.914C1997.96 672.702 2003.88 671.472 2009.55 671.472C2017.19 671.472 2023.59 672.948 2028.53 675.652C2033.46 678.357 2037.15 682.291 2039.63 686.962C2042.08 691.634 2043.31 697.043 2043.31 703.19C2043.31 708.845 2043.07 714.746 2042.33 721.138C2041.59 727.531 2040.86 734.169 2039.87 741.054C2038.87 747.692 2038.13 754.331 2037.4 760.969C2036.66 767.608 2036.41 773.509 2036.41 778.918C2036.41 781.869 2037.15 784.081 2038.63 785.802C2040.12 787.524 2042.08 788.507 2044.54 788.507C2048.49 788.507 2052.94 787.278 2057.85 784.573C2062.79 781.869 2067.47 778.18 2072.39 773.017L2075.85 803.259L2075.61 803.505Z" fill="white"/>
<path d="M2204 643.198C2203.75 645.165 2203.51 647.624 2203.02 650.575C2202.77 653.525 2202.52 656.475 2202.28 659.672C2202.28 662.622 2202.03 665.573 2201.79 668.277C2201.79 673.441 2201.79 679.096 2201.79 684.997C2201.79 690.897 2201.79 697.044 2201.79 703.191C2201.79 709.338 2201.79 716.222 2202.28 724.336C2202.77 732.45 2203.02 740.809 2203.75 749.169C2204.49 757.529 2204.74 765.642 2205.23 773.019C2205.72 780.395 2205.72 786.296 2205.72 790.967C2205.72 795.639 2204.98 800.31 2203.51 804.736C2202.03 809.162 2199.57 813.096 2196.11 816.538C2192.67 819.98 2187.98 822.685 2182.07 824.897C2176.15 826.864 2168.76 828.094 2159.89 828.094C2149.78 828.094 2140.42 826.864 2131.78 824.406C2123.16 821.947 2116.5 817.767 2111.57 812.112C2106.65 806.457 2104.17 798.589 2104.17 789C2104.17 781.624 2106.4 774.74 2110.58 768.839C2114.78 762.692 2121.43 758.02 2130.06 754.332C2138.68 750.644 2149.53 748.923 2162.84 748.923C2173.94 748.923 2184.77 750.152 2195.38 752.857C2205.98 755.316 2215.83 758.758 2224.95 762.692C2234.08 766.872 2242.45 771.297 2250.09 776.461C2257.73 781.624 2264.14 786.541 2269.56 791.705L2253.06 817.275C2247.88 812.112 2241.72 806.703 2234.81 801.54C2227.91 796.376 2220.52 791.459 2212.64 787.279C2204.74 783.099 2196.11 779.657 2187 776.952C2177.87 774.248 2168.51 773.019 2158.89 773.019C2150.51 773.019 2144.1 774.248 2139.17 776.952C2134.25 779.657 2132.02 783.345 2132.02 788.017C2132.02 793.18 2134.5 797.114 2139.17 799.081C2143.86 801.048 2150.27 802.277 2157.91 802.277C2164.56 802.277 2169.49 800.556 2172.2 797.36C2175.17 794.163 2176.4 789 2176.4 781.87C2176.4 778.182 2176.4 773.019 2175.9 766.38C2175.66 759.741 2175.41 752.611 2174.92 744.743C2174.67 736.875 2174.43 729.499 2174.18 722.123C2173.94 714.747 2173.69 708.6 2173.69 703.437V678.85C2173.69 674.916 2173.69 671.474 2173.69 668.523C2173.69 664.835 2173.44 661.639 2173.2 658.442C2173.2 655.246 2172.71 652.542 2172.44 649.837C2172.2 647.132 2171.71 645.165 2171.22 643.444H2203.51L2204 643.198ZM2187.49 684.013C2190.69 684.013 2195.13 684.013 2201.05 684.013C2206.97 684.013 2213.37 683.767 2220.52 683.521C2227.67 683.275 2234.81 682.784 2241.96 682.292C2249.11 681.8 2255.76 681.308 2261.93 680.571L2262.91 706.142C2256.99 706.633 2250.34 707.125 2242.94 707.617C2235.55 708.108 2228.41 708.354 2221.26 708.6C2214.11 708.6 2207.46 709.092 2201.54 709.092C2195.62 709.092 2190.93 709.092 2187.74 709.092V683.767L2187.49 684.013Z" fill="white"/>
<path d="M2405.62 744.742C2405.62 740.07 2404.4 735.645 2402.18 731.957C2399.72 728.023 2396.27 725.072 2391.58 722.614C2386.91 720.155 2381.23 719.171 2374.33 719.171C2366.7 719.171 2359.04 719.909 2351.89 721.138C2344.75 722.368 2338.34 723.843 2332.68 725.564C2327.01 727.285 2322.32 728.514 2318.62 729.744C2315.42 730.481 2311.96 731.711 2308.28 733.186C2304.57 734.661 2301.13 735.891 2297.92 737.12L2289.79 706.632C2293.49 706.386 2297.42 705.894 2301.87 705.157C2306.06 704.419 2310 703.681 2313.46 702.944C2318.62 701.714 2324.78 700.239 2331.68 698.764C2338.58 697.289 2345.99 696.059 2353.88 694.83C2361.76 693.601 2370.14 693.109 2378.27 693.109C2389.61 693.109 2399.72 695.322 2408.35 699.502C2416.97 703.681 2423.62 709.828 2428.56 717.696C2433.49 725.564 2435.95 734.907 2435.95 746.217C2435.95 757.527 2433.49 767.854 2428.56 777.197C2423.62 786.54 2416.48 794.654 2407.36 801.538C2398.23 808.423 2387.4 814.078 2375.07 818.749C2362.74 823.421 2348.94 826.617 2334.16 828.584L2318.62 802.03C2331.93 800.555 2344.01 798.096 2354.86 795.146C2365.7 792.195 2374.83 788.261 2382.46 783.59C2390.1 778.918 2396.02 773.509 2399.97 767.116C2404.15 760.724 2406.13 753.347 2406.13 744.988L2405.62 744.742ZM2321.34 641.968C2327.5 643.197 2334.9 644.426 2343.52 645.656C2352.14 646.885 2361.02 647.869 2370.38 648.606C2379.51 649.344 2388.38 650.081 2396.76 650.573C2405.13 651.065 2412.03 651.311 2417.71 651.557L2413.53 677.865C2407.36 677.373 2399.97 676.881 2391.33 676.144C2382.96 675.406 2374.09 674.669 2365.2 673.685C2356.09 672.702 2347.47 671.718 2339.08 670.735C2330.7 669.751 2323.31 668.522 2317.14 667.538L2321.34 641.968Z" fill="white"/>
</g>
</svg>
