<?xml version="1.0" encoding="UTF-8"?>
<svg id="_圖層_1" data-name="圖層_1" xmlns="http://www.w3.org/2000/svg" version="1.1" viewBox="0 0 2656 883.7">
  <!-- Generator: Adobe Illustrator 29.8.2, SVG Export Plug-In . SVG Version: 2.1.1 Build 3)  -->
  <defs>
    <style>
      .st0 {
        fill: #ea4335;
      }

      .st1 {
        fill: #fff;
      }

      .st2 {
        fill: #a6a6a6;
      }

      .st3 {
        fill: #fbbc04;
      }

      .st4 {
        fill: #4285f4;
      }

      .st5 {
        fill: #34a853;
      }
    </style>
  </defs>
  <path class="st2" d="M2423,.2H232.6c-8.9,0-17.8,0-26.7,0-7.5,0-14.9.2-22.4.3-16.4.2-32.7,1.6-48.9,4.3-16.1,2.8-31.8,8-46.4,15.4-14.6,7.5-27.9,17.3-39.5,29-11.6,11.6-21.3,25.1-28.7,39.9-7.4,14.7-12.6,30.5-15.2,46.8-2.7,16.3-4.2,32.7-4.4,49.2-.2,7.5-.3,15.1-.4,22.6v468.3c.1,7.6.1,15,.4,22.7.2,16.5,1.7,33,4.4,49.2,2.7,16.3,7.8,32.1,15.2,46.8,7.4,14.7,17.1,28.1,28.7,39.7,11.5,11.7,24.9,21.5,39.5,29,14.6,7.5,30.2,12.7,46.4,15.5,16.2,2.7,32.5,4.1,48.9,4.3,7.5.2,14.9.3,22.4.3,8.9,0,17.8,0,26.7,0h2190.4c8.8,0,17.7,0,26.4,0,7.4,0,15.1,0,22.5-.3,16.4-.2,32.7-1.7,48.8-4.3,16.2-2.8,31.9-8,46.6-15.5,14.6-7.5,27.9-17.3,39.5-29,11.6-11.6,21.3-25,28.8-39.7,7.4-14.7,12.5-30.5,15.1-46.8,2.7-16.3,4.2-32.7,4.5-49.2,0-7.6,0-15,0-22.7.2-8.9.2-17.8.2-26.9V234.7c0-9,0-17.9-.2-26.8,0-7.5,0-15.1,0-22.6-.3-16.5-1.8-33-4.5-49.2-2.6-16.3-7.8-32.1-15.1-46.8-15.1-29.6-38.9-53.7-68.3-68.8-14.7-7.4-30.4-12.6-46.6-15.4-16.1-2.7-32.4-4.2-48.8-4.3-7.4-.1-15.1-.3-22.5-.3-8.8,0-17.7,0-26.4,0Z"/>
  <path d="M206,862.2c-7.4,0-14.7,0-22.1-.3-15.3-.2-30.5-1.5-45.6-4-14.1-2.4-27.7-7-40.4-13.5-12.6-6.4-24.1-14.9-34.1-25-10.1-10-18.5-21.6-24.9-34.3-6.5-12.8-10.9-26.6-13.2-40.7-2.5-15.2-3.9-30.7-4.1-46.1-.2-5.2-.4-22.5-.4-22.5V207.9s.2-17,.4-22c.2-15.4,1.5-30.8,4-46,2.3-14.2,6.8-28,13.3-40.9,6.4-12.7,14.7-24.3,24.8-34.4,10-10.1,21.6-18.6,34.2-25.1,12.7-6.5,26.3-11,40.3-13.4,15.1-2.5,30.4-3.8,45.8-4l22-.3h2243.3l22.3.3c15.2.2,30.4,1.5,45.3,4,14.2,2.4,27.9,7,40.8,13.5,25.3,13.2,45.9,34,58.9,59.5,6.4,12.8,10.8,26.4,13.1,40.5,2.5,15.3,3.9,30.9,4.2,46.4,0,7,0,14.4,0,21.9.2,9.2.2,18,.2,26.8v414.5c0,8.9,0,17.6-.2,26.4,0,8,0,15.3-.1,22.9-.3,15.3-1.7,30.5-4.2,45.6-2.3,14.3-6.7,28.1-13.2,41.1-6.4,12.6-14.8,24.1-24.8,34.1-10,10.2-21.5,18.7-34.1,25.1-12.8,6.5-26.5,11.1-40.7,13.5-15.1,2.5-30.3,3.8-45.6,4-7.1.2-14.6.3-21.9.3h-26.4s-2217,0-2217,0Z"/>
  <g>
    <g>
      <path class="st1" d="M995.9,400.6h-99.8l-24,71.3h-42.3l94.5-263.9h43.9l94.5,263.9h-43l-24-71.3ZM906.4,367.7h79.1l-39-115.8h-1.1l-39,115.8Z"/>
      <path class="st1" d="M1267.1,375.7c0,59.8-31.8,98.2-79.7,98.2-12.1.6-24.2-2.2-34.8-8.1-10.6-6-19.4-14.8-25.2-25.5h-.9v95.3h-39.2v-256.1h37.9v32h.7c6.1-10.7,15-19.5,25.7-25.5,10.7-6,22.8-8.9,35.1-8.5,48.5,0,80.4,38.6,80.4,98.2ZM1226.8,375.7c0-39-20-64.6-50.5-64.6s-50.1,26.2-50.1,64.6,20.1,64.7,50.1,64.7,50.5-25.4,50.5-64.7Z"/>
      <path class="st1" d="M1477.2,375.7c0,59.8-31.8,98.2-79.7,98.2-12.1.6-24.2-2.2-34.8-8.1-10.6-6-19.4-14.8-25.2-25.5h-.9v95.3h-39.2v-256.1h37.9v32h.7c6.1-10.7,15-19.5,25.7-25.5,10.7-6,22.8-8.9,35.1-8.5,48.5,0,80.4,38.6,80.4,98.2ZM1436.9,375.7c0-39-20-64.6-50.4-64.6s-50.1,26.2-50.1,64.6,20.1,64.7,50.1,64.7,50.4-25.4,50.4-64.7Z"/>
      <path class="st1" d="M1616.1,398.4c2.9,26.2,28.1,43.4,62.6,43.4s56.8-17.2,56.8-40.8-14.3-32.8-48.3-41.2l-33.9-8.2c-48.1-11.7-70.4-34.4-70.4-71.2s39.4-76.8,95.3-76.8,93.3,31.3,94.6,76.8h-39.6c-2.4-26.3-24-42.2-55.5-42.2s-53.2,16.1-53.2,39.5,13.8,29.6,47.5,38l28.9,7.1c53.7,12.8,76,34.6,76,73.2s-39,80.3-101.1,80.3-97.3-30.2-99.8-77.9h40.1Z"/>
      <path class="st1" d="M1861.5,234v45.5h36.3v31.3h-36.3v106.1c0,16.5,7.3,24.2,23.2,24.2,4.3,0,8.6-.4,12.9-.9v31.1c-7.2,1.4-14.5,2-21.8,1.8-38.7,0-53.7-14.6-53.7-52v-110.3h-27.8v-31.3h27.8v-45.5h39.4Z"/>
      <path class="st1" d="M1918.8,375.7c0-60.5,35.4-98.6,90.6-98.6s90.6,38,90.6,98.6-35,98.6-90.6,98.6-90.6-37.9-90.6-98.6ZM2060,375.7c0-41.5-18.9-66-50.6-66s-50.6,24.7-50.6,66,18.9,66,50.6,66,50.6-24.3,50.6-66Z"/>
      <path class="st1" d="M2132.2,279.5h37.4v32.8h.9c2.5-10.2,8.5-19.3,16.8-25.6,8.4-6.3,18.6-9.6,29.1-9.2,4.5,0,9,.5,13.4,1.5v36.9c-5.7-1.8-11.7-2.6-17.6-2.4-5.7-.2-11.4.8-16.6,3-5.3,2.2-10,5.5-13.9,9.7-3.9,4.2-6.8,9.2-8.6,14.7-1.8,5.5-2.4,11.2-1.7,16.9v114.1h-39.2v-192.4Z"/>
      <path class="st1" d="M2410.6,415.4c-4.3,18.2-15,34.2-30.1,45-15.1,10.8-33.6,15.8-52.1,13.9-55.5,0-90-37.5-90-97.7s34.7-99.5,88.4-99.5,86,36.6,86,94.9v13.5h-134.9v2.4c-.6,7.1.3,14.2,2.6,20.9,2.3,6.7,6,12.9,10.9,18,4.9,5.2,10.8,9.2,17.3,11.9,6.5,2.7,13.6,3.9,20.6,3.7,9.3.9,18.6-1.3,26.5-6.2,7.9-4.9,14.1-12.2,17.6-20.9h37.2ZM2278.1,358h95.5c.3-6.4-.6-12.7-2.8-18.7-2.2-6-5.6-11.4-10-16-4.4-4.6-9.7-8.2-15.6-10.6-5.8-2.4-12.1-3.6-18.5-3.5-6.4,0-12.7,1.2-18.6,3.6-5.9,2.4-11.3,6-15.8,10.6-4.5,4.5-8.1,9.9-10.5,15.9-2.4,5.9-3.7,12.3-3.7,18.7Z"/>
    </g>
    <path class="st1" d="M604.2,449.4c.3-20.5,5.7-40.6,15.7-58.5,10.1-17.9,24.4-32.8,41.8-43.6-11-15.9-25.6-28.9-42.5-38.1-16.9-9.2-35.7-14.3-54.9-14.9-41-4.3-80.7,24.7-101.6,24.7s-53.4-24.3-88-23.6c-22.4.7-44.2,7.3-63.3,19-19.1,11.8-34.9,28.3-45.8,48-47.2,82.3-12,203.3,33.2,269.9,22.6,32.6,49,69,83.6,67.7,33.8-1.4,46.5-21.7,87.3-21.7s52.3,21.7,87.6,20.9c36.3-.6,59.2-32.7,81-65.6,16.2-23.2,28.7-48.9,37-76-21.1-9-39.1-24-51.8-43.3-12.7-19.2-19.4-41.8-19.5-64.9Z"/>
    <path class="st1" d="M537.6,250.5c19.8-24,29.5-54.7,27.2-85.8-30.2,3.2-58.2,17.8-78.2,40.8-9.8,11.3-17.3,24.3-22.1,38.5-4.8,14.2-6.8,29.2-5.8,44.1,15.1.2,30.1-3.1,43.8-9.7,13.7-6.5,25.7-16.1,35.2-28Z"/>
    <g>
      <path class="st1" d="M852.1,712.5v-93.2h24.2c9.6,0,17.8,1.8,24.4,5.2,6.7,3.5,11.7,8.7,15.2,15.5,3.5,6.8,5.2,15.3,5.2,25.6s-1.8,18.7-5.2,25.7c-3.5,7-8.5,12.3-15.1,15.9-6.6,3.6-14.5,5.4-23.8,5.4h-24.9ZM866.8,700.5h8.5c6.7,0,12.3-1.3,16.9-3.9,4.6-2.6,8.1-6.5,10.4-11.7,2.3-5.2,3.5-11.6,3.5-19.3s-1.2-14.2-3.5-19.2c-2.3-5.1-5.8-8.8-10.4-11.3-4.6-2.5-10.2-3.7-16.9-3.7h-8.5v69.2Z"/>
      <path class="st1" d="M967.2,714.3c-5.7,0-11.1-1.5-16.1-4.4-5-2.9-9.1-7.1-12.1-12.5-3.1-5.4-4.6-12-4.6-19.7s1.5-14.4,4.6-19.8c3.1-5.4,7.1-9.6,12.1-12.5,5-2.9,10.4-4.3,16.1-4.3s8.3.8,12.3,2.5c4,1.6,7.5,4,10.5,7.1,3,3.1,5.4,6.9,7.2,11.4,1.8,4.5,2.7,9.7,2.7,15.5s-1.5,14.2-4.6,19.7c-3.1,5.4-7.1,9.6-12,12.5-4.9,2.9-10.3,4.4-16,4.4ZM967.2,702.1c3.6,0,6.8-1,9.4-3,2.7-2,4.7-4.9,6.1-8.5,1.4-3.7,2.2-7.9,2.2-12.8s-.7-9.2-2.2-12.8c-1.4-3.7-3.5-6.5-6.1-8.6-2.7-2.1-5.8-3.1-9.4-3.1s-6.9,1-9.6,3.1c-2.7,2.1-4.7,4.9-6.1,8.6-1.4,3.7-2.2,7.9-2.2,12.8s.7,9.2,2.2,12.8c1.4,3.7,3.5,6.5,6.1,8.5,2.7,2,5.8,3,9.6,3Z"/>
      <path class="st1" d="M1026.9,712.5l-18.7-69.7h14.7l9.2,37.7c.7,3.4,1.3,6.7,1.9,9.9.6,3.2,1.2,6.6,1.9,9.9h.6c.7-3.4,1.4-6.7,2.1-9.9.7-3.2,1.5-6.6,2.3-9.9l9.9-37.7h13.4l10,37.7c.8,3.4,1.6,6.7,2.4,9.9.8,3.2,1.5,6.6,2.3,9.9h.6c.7-3.4,1.3-6.7,2-9.9.6-3.2,1.3-6.6,2-9.9l9-37.7h13.8l-18.1,69.7h-17.5l-8.9-34.4c-.8-3.3-1.6-6.6-2.3-9.9-.7-3.3-1.4-6.7-2.2-10.2h-.6c-.8,3.5-1.5,7-2.1,10.3-.6,3.3-1.4,6.6-2.2,9.9l-8.6,34.3h-17Z"/>
      <path class="st1" d="M1120.7,712.5v-69.7h11.9l1.3,9.7h.3c3.2-3.1,6.7-5.8,10.4-8,3.7-2.2,7.9-3.4,12.6-3.4,7.4,0,12.8,2.4,16.3,7.1,3.4,4.8,5.1,11.6,5.1,20.4v43.8h-14.5v-42c0-6-.9-10.3-2.8-12.8-1.9-2.6-4.9-3.9-9-3.9s-6.1.8-8.5,2.3c-2.5,1.6-5.3,3.9-8.4,7v49.3h-14.5Z"/>
      <path class="st1" d="M1214,714.3c-3.5,0-6.4-.7-8.5-2.2-2.1-1.5-3.6-3.6-4.6-6.3-.9-2.7-1.4-6-1.4-9.7v-84.4h14.5v85.1c0,1.9.4,3.3,1.1,4.1.7.8,1.5,1.2,2.3,1.2s.7,0,1,0c.3,0,.8-.1,1.5-.2l1.8,11c-.8.3-1.9.7-3.2.9-1.3.3-2.8.4-4.7.4Z"/>
      <path class="st1" d="M1265.3,714.3c-5.7,0-11.1-1.5-16.1-4.4-5-2.9-9.1-7.1-12.1-12.5-3.1-5.4-4.6-12-4.6-19.7s1.5-14.4,4.6-19.8c3.1-5.4,7.1-9.6,12.1-12.5,5-2.9,10.4-4.3,16.1-4.3s8.3.8,12.3,2.5c4,1.6,7.5,4,10.5,7.1,3,3.1,5.4,6.9,7.2,11.4,1.8,4.5,2.7,9.7,2.7,15.5s-1.5,14.2-4.6,19.7c-3.1,5.4-7.1,9.6-12,12.5-4.9,2.9-10.3,4.4-16,4.4ZM1265.3,702.1c3.6,0,6.8-1,9.4-3,2.7-2,4.7-4.9,6.1-8.5,1.4-3.7,2.2-7.9,2.2-12.8s-.7-9.2-2.2-12.8c-1.4-3.7-3.5-6.5-6.1-8.6-2.7-2.1-5.8-3.1-9.4-3.1s-6.9,1-9.6,3.1c-2.7,2.1-4.7,4.9-6.1,8.6-1.4,3.7-2.2,7.9-2.2,12.8s.7,9.2,2.2,12.8c1.4,3.7,3.5,6.5,6.1,8.5,2.7,2,5.8,3,9.6,3Z"/>
      <path class="st1" d="M1329,714.3c-4,0-7.5-.8-10.6-2.5-3.1-1.7-5.5-4-7.3-7.1s-2.7-6.6-2.7-10.6c0-7.5,3.3-13.3,9.9-17.4,6.6-4.1,17.2-6.9,31.7-8.5,0-2.7-.5-5.2-1.3-7.5-.8-2.3-2.1-4.1-4-5.5-1.9-1.4-4.6-2.1-8-2.1s-7.1.7-10.5,2.2c-3.4,1.4-6.6,3.1-9.6,4.9l-5.4-9.9c2.4-1.5,5.1-3,8.1-4.4,3-1.4,6.1-2.5,9.5-3.4s6.9-1.3,10.5-1.3c5.8,0,10.6,1.2,14.3,3.5,3.7,2.3,6.5,5.7,8.3,10.1,1.8,4.4,2.7,9.7,2.7,15.9v41.9h-11.9l-1.1-8h-.5c-3.1,2.7-6.5,5-10.2,6.9s-7.7,2.8-11.9,2.8ZM1333.4,702.6c3,0,5.9-.7,8.5-2.1s5.4-3.4,8.2-6.1v-17c-6.8.8-12.3,1.9-16.3,3.4-4,1.5-6.9,3.2-8.7,5.2-1.7,2-2.6,4.3-2.6,6.9s1.1,5.9,3.2,7.5c2.1,1.5,4.7,2.3,7.7,2.3Z"/>
      <path class="st1" d="M1409.2,714.3c-5.7,0-10.8-1.4-15.1-4.3-4.3-2.9-7.6-7-10-12.5-2.4-5.5-3.5-12.1-3.5-19.7s1.4-14,4.2-19.5c2.8-5.5,6.5-9.7,11-12.6,4.5-3,9.3-4.4,14.5-4.4s7.5.7,10.3,2.1c2.8,1.4,5.6,3.3,8.4,5.8l-.5-11.5v-25.8h14.5v100.8h-11.9l-1.3-7.8h-.4c-2.6,2.7-5.7,5-9.1,6.8-3.5,1.9-7.2,2.8-11.3,2.8ZM1412.8,702c3,0,5.7-.7,8.2-2,2.5-1.3,5.1-3.5,7.6-6.5v-33.9c-2.5-2.3-5.1-3.9-7.6-4.9-2.5-1-5.1-1.5-7.7-1.5s-6.1,1-8.8,3c-2.7,2-4.8,4.8-6.4,8.3-1.6,3.6-2.4,7.9-2.4,13s.7,9.7,2,13.3c1.3,3.7,3.3,6.4,5.9,8.3,2.6,1.9,5.6,2.8,9.2,2.8Z"/>
      <path class="st1" d="M1521.4,714.3c-5.7,0-11.1-1.5-16.1-4.4-5-2.9-9.1-7.1-12.1-12.5-3.1-5.4-4.6-12-4.6-19.7s1.5-14.4,4.6-19.8c3.1-5.4,7.1-9.6,12.1-12.5,5-2.9,10.4-4.3,16.1-4.3s8.3.8,12.3,2.5c4,1.6,7.5,4,10.5,7.1,3,3.1,5.4,6.9,7.2,11.4,1.8,4.5,2.7,9.7,2.7,15.5s-1.5,14.2-4.6,19.7c-3.1,5.4-7.1,9.6-12,12.5-4.9,2.9-10.3,4.4-16,4.4ZM1521.4,702.1c3.6,0,6.8-1,9.4-3,2.7-2,4.7-4.9,6.1-8.5,1.4-3.7,2.2-7.9,2.2-12.8s-.7-9.2-2.2-12.8c-1.4-3.7-3.5-6.5-6.1-8.6-2.7-2.1-5.8-3.1-9.4-3.1s-6.9,1-9.5,3.1c-2.7,2.1-4.7,4.9-6.1,8.6-1.4,3.7-2.2,7.9-2.2,12.8s.7,9.2,2.2,12.8c1.4,3.7,3.5,6.5,6.1,8.5,2.7,2,5.8,3,9.5,3Z"/>
      <path class="st1" d="M1571.3,712.5v-69.7h11.9l1.3,9.7h.3c3.2-3.1,6.7-5.8,10.4-8,3.7-2.2,7.9-3.4,12.6-3.4,7.4,0,12.8,2.4,16.3,7.1,3.4,4.8,5.1,11.6,5.1,20.4v43.8h-14.5v-42c0-6-.9-10.3-2.8-12.8-1.9-2.6-4.9-3.9-9-3.9s-6.1.8-8.5,2.3c-2.5,1.6-5.3,3.9-8.4,7v49.3h-14.5Z"/>
      <path class="st1" d="M1702.1,714.3c-5.2,0-9.4-1-12.5-3.1-3.1-2.1-5.3-4.9-6.6-8.6-1.4-3.7-2-7.9-2-12.8v-35.2h-10.1v-10.9l10.9-.9,1.6-19.2h12.1v19.2h18.1v11.8h-18.1v35.3c0,4.1.8,7.3,2.4,9.4,1.6,2.2,4.2,3.2,7.8,3.2s2.4-.2,3.8-.5c1.3-.3,2.5-.7,3.5-1.1l2.7,10.8c-1.9.6-3.9,1.2-6.3,1.8-2.3.6-4.8.9-7.4.9Z"/>
      <path class="st1" d="M1728.7,712.5v-100.8h14.5v26.7l-.6,13.8c3-3,6.4-5.6,10-7.8,3.6-2.2,7.8-3.2,12.5-3.2,7.4,0,12.8,2.4,16.3,7.1,3.4,4.8,5.1,11.6,5.1,20.4v43.8h-14.5v-42c0-6-.9-10.3-2.8-12.8-1.9-2.6-4.9-3.9-9-3.9s-6.1.8-8.5,2.3c-2.5,1.6-5.3,3.9-8.4,7v49.3h-14.5Z"/>
      <path class="st1" d="M1836.4,714.3c-6.3,0-12.1-1.5-17.2-4.4-5.1-2.9-9.2-7.1-12.3-12.5s-4.6-12-4.6-19.7.9-10.7,2.7-15.2c1.8-4.5,4.2-8.3,7.2-11.5,3-3.2,6.5-5.6,10.2-7.3,3.8-1.7,7.7-2.5,11.6-2.5,6.2,0,11.3,1.4,15.6,4.1,4.2,2.7,7.4,6.6,9.6,11.5,2.2,4.9,3.3,10.7,3.3,17.3s0,2.8-.2,4.1c-.1,1.3-.3,2.4-.6,3.4h-45.2c.4,4.4,1.6,8.2,3.5,11.3,1.9,3.2,4.4,5.6,7.5,7.3,3.1,1.7,6.6,2.6,10.6,2.6s6-.5,8.7-1.4c2.7-.9,5.3-2.2,7.8-3.8l5.1,9.2c-3.2,2.1-6.8,3.9-10.7,5.3-3.9,1.4-8.2,2.2-12.7,2.2ZM1816.5,671.4h33.4c0-5.9-1.3-10.5-4-13.8s-6.5-4.9-11.6-4.9-5.6.7-8.1,2.2c-2.5,1.4-4.7,3.5-6.4,6.3-1.7,2.8-2.8,6.2-3.4,10.2Z"/>
    </g>
  </g>
  <g>
    <path d="M6049.4,0h-3006.4c-67.7,0-122.6,55-122.6,122.9v637.6c0,67.9,54.9,122.9,122.6,122.9h3006.4c67.8,0,122.7-55,122.7-122.9V122.9c0-67.9-54.9-122.9-122.7-122.9Z"/>
    <path class="st2" d="M6048.8,19.9c57.2,0,103.5,46.2,103.5,103.3v637.6c0,57-46.3,103.3-103.5,103.3h-3020.9c-57.2,0-103.5-46.2-103.5-103.3V123.2c0-57,46.3-103.3,103.5-103.3h3020.9ZM6048.8.2h-3020.9c-67.8,0-123.2,55.3-123.2,122.9v637.6c0,67.6,55.5,122.9,123.2,122.9h3020.9c67.8,0,123.2-55.3,123.2-122.9V123.2c0-67.6-55.4-122.9-123.2-122.9Z"/>
    <g>
      <path class="st0" d="M3465.4,427.7l-262.5,277.8c8.1,30.2,35.7,52.4,68.5,52.4s25.4-3.4,36-9.8l.7-.5,295.3-169.9-138.3-150.2.2.2Z"/>
      <path class="st3" d="M3730.8,380.5h-.2l-127.4-74-143.7,127.6,144.2,143.8,126.9-73c22.2-12,37.2-35.4,37.2-62.2s-14.8-50.2-37-62v-.2Z"/>
      <path class="st4" d="M3202.8,178.4c-1.5,5.9-2.5,11.8-2.5,18.2v491c0,6.4.7,12.3,2.5,18.2l271.4-270.7-271.4-256.7Z"/>
      <path class="st5" d="M3467.3,442l135.8-135.5-295-170.6c-10.6-6.4-23.2-10.1-36.7-10.1-32.8,0-60.4,22.4-68.5,52.4l264.5,263.6v.2Z"/>
      <g>
        <path class="st1" d="M4599.2,306.1c-54.9,0-99.8,41.7-99.8,99s44.9,99,99.8,99,99.7-41.9,99.7-99-44.8-99-99.7-99ZM4599.2,465.3c-30.1,0-56.1-24.7-56.1-60.1s25.9-60.1,56.1-60.1,56.1,24.5,56.1,60.1-25.9,60.1-56.1,60.1ZM4381.5,306.1c-54.9,0-99.7,41.7-99.7,99s44.8,99,99.7,99,99.8-41.9,99.8-99-44.9-99-99.8-99ZM4381.5,465.3c-30.1,0-56.1-24.7-56.1-60.1s25.9-60.1,56.1-60.1,56.1,24.5,56.1,60.1-25.9,60.1-56.1,60.1ZM4122.7,336.7v41.9h100.9c-3,23.8-11,41-22.9,52.9-14.7,14.7-37.6,30.8-77.8,30.8-62.1,0-110.7-49.9-110.7-111.9s48.6-111.9,110.7-111.9,57.9,13,75.9,30.1l29.7-29.6c-25.2-24-58.6-42.4-105.8-42.4-85,0-156.5,69-156.5,154s71.5,154,156.5,154,80.6-14.9,107.7-43.1c27.8-27.7,36.4-66.9,36.4-98.3s-.7-18.9-2.3-26.3h-141.8v-.2ZM5181.2,369.3c-8.2-22.1-33.4-63.1-85-63.1s-93.7,40.1-93.7,99,42.1,99,98.6,99,71.9-27.7,82.7-43.8l-33.9-22.6c-11.2,16.5-26.6,27.5-48.8,27.5s-38.1-10.3-48.1-30.1l132.9-54.8-4.4-11.2h-.2ZM5045.7,402.4c-1.2-38.2,29.7-57.8,51.9-57.8s32,8.6,36.9,21l-88.8,36.8ZM4937.7,498.4h43.7V207.1h-43.7v291.3ZM4866.3,328.3h-1.4c-9.8-11.7-28.5-22.1-52.3-22.1-49.8,0-95.3,43.6-95.3,99.5s45.5,98.8,95.3,98.8,42.5-10.5,52.3-22.6h1.4v14.2c0,38-20.3,58.3-53,58.3s-43.2-19.1-50-35.2l-38.1,15.8c11,26.3,40,58.5,88.1,58.5s94.4-30.1,94.4-103.2v-178h-41.3v16.1ZM4816,465.3c-30.1,0-55.4-25.2-55.4-59.7s25.2-60.4,55.4-60.4,53,25.6,53,60.4-23.4,59.7-53,59.7ZM5385.8,207.1h-104.4v291.3h43.7v-110.5h61c48.4,0,95.8-35,95.8-90.4s-47.4-90.4-95.8-90.4h-.2ZM5386.7,347.4h-61.9v-100h61.9c32.7,0,51.2,27,51.2,49.9s-18.5,49.9-51.2,49.9v.2ZM5656.3,305.7c-31.5,0-64.2,14-77.8,44.5l38.8,16.1c8.2-16.1,23.6-21.4,39.7-21.4s45.5,13.5,45.8,37.5v3c-7.9-4.4-24.8-11.2-45.5-11.2-41.8,0-84.1,22.8-84.1,65.5s34.1,64.1,72.4,64.1,45.5-13,55.6-28.4h1.4v22.6h42.1v-111.6c0-51.7-38.8-80.6-88.8-80.6h.5ZM5650.9,465.3c-14.3,0-34.1-7.2-34.1-24.7s24.8-31,46.2-31,28.3,4.2,39.7,9.8c-3.3,27-26.6,46.1-51.9,46.1v-.2ZM5898.1,312l-50,126.3h-1.4l-51.9-126.3h-47l77.8,176.6-44.4,98.1h45.5l119.8-274.7h-48.6ZM5505.6,498.4h43.7V207.1h-43.7v291.3Z"/>
        <path class="st1" d="M4036,758.2c-11.2,0-21.1-2.6-29.6-7.8-8.6-5.2-15.3-12.7-20.2-22.5-4.9-9.8-7.3-21.5-7.3-35.3s1.4-19.4,4.3-27.6c2.9-8.1,6.9-15,12.2-20.7,5.2-5.6,11.4-10,18.4-13,7-3,14.8-4.5,23.2-4.5s16.2,1.6,22.1,4.9c5.9,3.3,10.7,6.8,14.3,10.6l-8.6,10.4c-3.2-3.3-7-6.2-11.3-8.5-4.3-2.3-9.7-3.5-16-3.5s-16,2.1-22.3,6.2c-6.3,4.1-11.2,10.1-14.7,17.7-3.5,7.7-5.2,16.7-5.2,27.2s1.6,20,4.9,27.7,8.1,13.8,14.4,18c6.3,4.2,14,6.3,23,6.3s8.8-.7,12.9-2c4.1-1.3,7.4-3.1,9.9-5.4v-33.2h-27v-13.3h41.7v53.2c-4.1,4.3-9.6,7.8-16.3,10.5-6.7,2.8-14.3,4.1-22.7,4.1Z"/>
        <path class="st1" d="M4105.3,756v-126.7h73v13.5h-57v39.8h48.1v13.7h-48.1v46.2h58.9v13.7h-74.9Z"/>
        <path class="st1" d="M4233.4,756v-113.2h-38.4v-13.5h92.8v13.5h-38.4v113.2h-16.1Z"/>
        <path class="st1" d="M4349.4,756v-126.7h15.9v126.7h-15.9Z"/>
        <path class="st1" d="M4426.3,756v-113.2h-38.4v-13.5h92.8v13.5h-38.4v113.2h-16.1Z"/>
        <path class="st1" d="M4589,758.2c-10.6,0-20-2.7-28.1-8-8.1-5.4-14.5-13-19.1-22.9-4.6-9.9-6.9-21.6-6.9-35.1s2.3-25.3,6.9-35c4.6-9.7,11-17.2,19.1-22.4,8.1-5.2,17.5-7.8,28.1-7.8s20,2.6,28.1,7.9c8.1,5.2,14.5,12.7,19.1,22.4,4.6,9.7,6.9,21.3,6.9,34.9s-2.3,25.2-6.9,35.1c-4.6,9.9-11,17.5-19.1,22.9-8.1,5.4-17.5,8-28.1,8ZM4589,744.2c7.6,0,14.2-2.1,19.9-6.4,5.6-4.3,10-10.3,13.1-18.2,3.1-7.8,4.7-17,4.7-27.5s-1.6-19.7-4.7-27.4c-3.1-7.7-7.5-13.5-13.1-17.6-5.6-4.1-12.3-6.1-19.9-6.1s-14.1,2-19.8,6.1c-5.7,4.1-10.1,10-13.2,17.6-3.1,7.7-4.7,16.8-4.7,27.4s1.6,19.7,4.7,27.5c3.1,7.8,7.5,13.9,13.2,18.2,5.7,4.3,12.3,6.4,19.8,6.4Z"/>
        <path class="st1" d="M4670.6,756v-126.7h16.2l46.3,79.9,13.7,26.1h.9c-.6-6.3-1.1-13-1.6-19.9-.5-6.9-.7-13.7-.7-20.2v-65.9h15.2v126.7h-16.4l-46.2-80-13.7-25.9h-.7c.3,6.3.7,12.8,1.2,19.4.5,6.6.7,13.3.7,20v66.6h-15Z"/>
      </g>
    </g>
  </g>
</svg>