<?xml version="1.0" encoding="UTF-8"?>
<svg id="_圖層_1" data-name="圖層_1" xmlns="http://www.w3.org/2000/svg" version="1.1" xmlns:xlink="http://www.w3.org/1999/xlink" viewBox="0 0 52 52">
  <!-- Generator: Adobe Illustrator 29.8.2, SVG Export Plug-In . SVG Version: 2.1.1 Build 3)  -->
  <defs>
    <style>
      .st0 {
        fill: #1c1c1c;
      }

      .st1 {
        fill: url(#_未命名漸層);
        stroke-width: 4px;
      }

      .st1, .st2 {
        stroke: #1c1c1c;
      }

      .st2 {
        stroke-width: 10px;
      }

      .st2, .st3 {
        fill: none;
        stroke-linecap: round;
        stroke-miterlimit: 1.2;
      }

      .st3 {
        stroke: #fff;
        stroke-width: 2.2px;
      }
    </style>
    <linearGradient id="_未命名漸層" data-name="未命名漸層" x1="-105.1" y1="196" x2="-71.8" y2="162.7" gradientTransform="translate(0 205.4) scale(1 -1)" gradientUnits="userSpaceOnUse">
      <stop offset="0" stop-color="#f33741"/>
      <stop offset=".3" stop-color="#ffeb3b"/>
      <stop offset=".5" stop-color="#00e676"/>
      <stop offset=".8" stop-color="#7443fc"/>
      <stop offset=".9" stop-color="#ce04f9"/>
      <stop offset="1" stop-color="#d500f9"/>
    </linearGradient>
  </defs>
  <g>
    <path class="st0" d="M22.3,12.4h6.5c-.2-1.7-.2-4.3,0-6.8-1.8-.9-4.8-.8-5.7-.5-.9.2-.9,1-.8,1.9,0,1.8.1,3.5,0,5.5Z"/>
    <path class="st0" d="M6.2,10.4c8.7.2,15.1.2,19.5.2,4.5,0,14.4-.1,19.6-.2,1,0,1.7.6,1.7,1.7-.1,3.4,0,6.2,0,9.1,0,.8-.8,1.3-1.3,1.3-.9.1-2.6.1-3.5,0-.8-.1-1.3-.5-1.3-1.3,0-1.3.2-4.4,0-5.9-6.8,0-11.8-.1-15.2-.1s-8.4,0-15.2.1c-.1,1.4,0,4.2,0,5.9,0,.9-.5,1.2-1.3,1.3-.9.1-2.8,0-3.5,0-.8-.1-1.3-.5-1.3-1.3.1-2.7,0-5.7,0-8.9,0-1.3.9-1.9,1.7-1.9Z"/>
    <path class="st0" d="M50.7,34.6c-.2.9-.8,1.3-1.8,1.3-6.9-.2-14-.2-22.8-.2s-16.6,0-23.6.2c-1,0-1.3-.4-1.4-1.3-.1-.9,0-1.6,0-2.2.1-.9.5-1.3,1.4-1.3,10.5.2,18.4.2,23.6.2s14.3.2,24.4-.6c.5,1.2.5,2.9.2,3.9Z"/>
    <path class="st0" d="M12.9,44.2c.2-1,1.5-3.2,2.4-4,2.9,1,5.9,1.6,7.6,1.6,4.9,0,5.5-3.7,3.4-6.8-.7-1.1-1.2-1.5-1.2-1.5v-1.1c-1-1-4.4-2.8-5.8-3.4.5-1.2,1.6-3,2.5-3.6.8-.6,2.2-.2,3.2.5,3.4,2.3,5.4,4,7.3,7.6,1.6,3.1,1.7,8.8-1.5,11.9-1.7,1.6-4.4,2.4-7.6,2.4s-7.1-1-9.7-1.9c-.7-.3-.8-.8-.6-1.7h0Z"/>
    <path class="st0" d="M26.1,27.4c1.7-1.2,3.8-4.4,4.3-6.1l.4,1c-1.7,0-5.3-.2-8.1-.1-2.7,0-5.6.1-7.3,0-.5,0-1.3-.3-1.4-1.4,0-.6,0-1.7,0-2.4.1-1,.6-1.5,1.4-1.4,3.5.1,7,.2,10.6.2s4.6,0,8.1-.2c2.6,0,4.3,2.4,2.5,5.3-1.8,3.1-4,5.8-6.3,8.1-.3.5-4.3-2.9-4.2-3.1h0Z"/>
  </g>
  <path class="st2" d="M-47.1,7.7c-.4,9,0,22,12.3,25.3,14.5,3.9,20.6-9.6,12.3-15.8-8.2-6.1-21.7,5.5-11.9,19.8,3.8,5.5,15.4,7.6,21.8,7.4"/>
  <path class="st3" d="M-47.1,7.7c-.4,9,0,22,12.3,25.3,14.5,3.9,20.6-9.6,12.3-15.8-8.2-6.1-21.7,5.5-11.9,19.8,3.8,5.5,15.4,7.6,21.8,7.4"/>
  <path class="st0" d="M100.1,7.3c-.8-.7-1.7-1.1-2.7-1.1h-20.7c-1,0-1.9.4-2.7,1.1-.8.7-1.2,1.6-1.2,2.5v25c0,.9.4,1.8,1.2,2.5s1.7,1,2.7,1h20.7c1,0,1.9-.3,2.7-1s1.1-1.5,1.1-2.5V9.8c0-.9-.4-1.8-1.1-2.5ZM97.4,34.8h-20.7V9.8h20.7v25Z"/>
  <path class="st0" d="M70.7,17.5h-3.5v24.8c0,.9.3,1.8,1,2.5.7.7,1.5,1.1,2.4,1.1h21.1v-3.6h-21.1v-24.8Z"/>
  <path class="st1" d="M-88.5,46.8c11.5,0,20.8-9.3,20.8-20.8s-9.3-20.8-20.8-20.8-20.8,9.3-20.8,20.8,9.3,20.8,20.8,20.8Z"/>
  <path class="st0" d="M-121.8,13.6c-.9-.9-2-1.4-3.2-1.4h-41.3c-1.2,0-2.3.5-3.2,1.4-.9.9-1.4,2-1.4,3.2v18.3c0,1.2.5,2.3,1.4,3.2s2,1.4,3.2,1.4h41.3c1.2,0,2.3-.5,3.2-1.4s1.4-2,1.4-3.2v-18.3c0-1.2-.5-2.3-1.4-3.2ZM-125,35.1h-41.3v-18.3h4.6v9.1h4.5v-9.1h4.6v9.1h4.6v-9.1h4.5v9.1h4.6v-9.1h4.6v9.1h4.5v-9.1h4.6v18.3Z"/>
</svg>